<svg width="18" height="19" viewBox="0 0 18 19" fill="none" xmlns="http://www.w3.org/2000/svg">
<path d="M8.6695 0.115157C8.60583 0.178828 8.53913 0.281915 8.52094 0.348618C8.49971 0.424417 8.48758 0.782188 8.48758 1.2764V2.0829L8.2238 2.10412C7.53555 2.15567 6.62899 2.42248 5.91648 2.77722C5.16153 3.15015 4.56726 3.58675 3.98209 4.19011C2.90575 5.30284 2.24781 6.69451 2.07802 8.21655L2.04164 8.53491L1.1745 8.53794C0.213369 8.54097 0.210337 8.54097 0.0890587 8.74108C-0.0473794 8.96241 -0.0261557 9.20194 0.146666 9.37173C0.207305 9.43237 0.310392 9.49907 0.377095 9.51726C0.449862 9.53849 0.798537 9.55061 1.26243 9.55061H2.02648L2.04164 9.64764C2.0477 9.70221 2.07802 9.92051 2.10531 10.1327C2.26297 11.3395 2.77841 12.5341 3.56065 13.5073C4.00029 14.0531 4.68248 14.6534 5.31919 15.0536C6.1075 15.5509 7.26874 15.9571 8.16923 16.0542C8.52094 16.0905 8.48152 15.9875 8.49365 16.8819C8.50274 17.6308 8.50578 17.6672 8.57551 17.8066C8.67557 18.0098 8.78775 18.0765 9.01211 18.0613C9.20919 18.0492 9.31834 17.9855 9.41233 17.8248C9.46691 17.7308 9.47297 17.6581 9.48207 16.9122L9.49116 16.1057L9.67914 16.0845C9.78223 16.0754 10.0127 16.0451 10.1946 16.0178L10.519 15.9723V15.4569V14.9384L10.422 14.9596C10.1643 15.0112 9.79133 15.0657 9.63973 15.0748L9.47297 15.0839L9.46388 13.6438C9.45478 12.058 9.46691 12.146 9.2577 11.9883C9.04547 11.8246 8.71498 11.8913 8.55732 12.1278L8.48758 12.2278V13.6589V15.09L8.19955 15.0506C5.73153 14.708 3.76682 12.9646 3.16953 10.5845C3.10283 10.3238 2.99974 9.72343 2.99974 9.60216C2.99974 9.55668 3.14224 9.55061 4.3429 9.54455L5.68605 9.53545L5.79824 9.45965C6.09234 9.25651 6.11053 8.83507 5.83159 8.62283L5.73153 8.544L4.36412 8.54703C3.08463 8.55007 2.99974 8.54703 2.99974 8.49852C2.99974 8.38634 3.12102 7.70718 3.18166 7.47372C3.72741 5.41199 5.3768 3.79292 7.48401 3.2593C7.77811 3.18653 8.29354 3.09254 8.41785 3.09254H8.48455L8.49365 4.47815C8.50274 6.01838 8.49971 5.982 8.70589 6.13056C8.78472 6.18514 8.84536 6.2003 9.00302 6.2003C9.21222 6.2003 9.29409 6.16088 9.41536 6.00625C9.46994 5.93045 9.47297 5.86072 9.48207 4.50847L9.49116 3.09254H9.55787C9.69734 3.09254 10.2249 3.1835 10.5251 3.2593C12.3321 3.72016 13.8966 5.07847 14.5758 6.78547C14.791 7.32212 14.976 8.08618 14.976 8.43485V8.55007H13.6298C12.2866 8.55007 12.2866 8.55007 12.1866 8.61677C12.0138 8.73502 11.9592 8.83507 11.9592 9.03215C11.9592 9.17768 11.9743 9.22619 12.0441 9.32018C12.2139 9.54152 12.1684 9.53545 13.651 9.54455L14.976 9.55364L14.9729 9.63551C14.9729 9.68099 14.9608 9.78407 14.9487 9.8629L14.9244 10.0084L15.0942 10.0964C15.3034 10.1995 15.6066 10.4268 15.734 10.5694C15.7855 10.63 15.834 10.6755 15.8401 10.6694C15.8583 10.6482 15.9159 10.0782 15.9219 9.81743L15.931 9.55061H16.7194C17.2014 9.55061 17.5562 9.53849 17.6289 9.51726C17.8078 9.46572 17.9685 9.2929 17.9928 9.12007C18.0201 8.92906 17.9716 8.78959 17.823 8.65922L17.7047 8.55007H16.8285H15.9492L15.931 8.37421C15.8249 7.40095 15.6188 6.67632 15.2216 5.88497C14.5424 4.53575 13.4509 3.45031 12.0926 2.77722C11.3649 2.41338 10.4553 2.15263 9.76404 2.10109L9.48813 2.0829L9.4851 1.54927C9.48207 0.694261 9.45175 0.318298 9.37898 0.221276C9.2668 0.0696776 9.13036 -5.74615e-05 8.94844 -5.74615e-05C8.79684 -5.74615e-05 8.77259 0.00903842 8.6695 0.115157Z" fill="black"/>
<path d="M8.57854 7.26457C8.26018 7.33127 8.01762 7.47074 7.74172 7.74665C7.35059 8.13171 7.20203 8.48948 7.20203 9.03523C7.20506 9.39603 7.27783 9.65982 7.46277 9.96604C7.60831 10.2056 7.92363 10.4936 8.19045 10.624C8.93327 10.9908 9.74584 10.8362 10.3098 10.2207C10.6251 9.88115 10.7767 9.47487 10.7737 8.98975C10.7737 8.48948 10.5857 8.07107 10.1976 7.70117C9.75494 7.28276 9.19402 7.13116 8.57854 7.26457Z" fill="black"/>
<path d="M11.9367 17.39C11.7533 17.39 11.5964 17.3248 11.466 17.1943C11.3356 17.0639 11.2702 16.9069 11.27 16.7233V13.39C11.27 13.2067 11.3353 13.0498 11.466 12.9193C11.5967 12.7889 11.7536 12.7236 11.9367 12.7233H12.27V12.0567C12.27 11.5956 12.4326 11.2026 12.7577 10.8777C13.0828 10.5528 13.4758 10.3902 13.9367 10.39C14.3976 10.3898 14.7907 10.5523 15.116 10.8777C15.4413 11.203 15.6038 11.596 15.6033 12.0567V12.7233H15.9367C16.12 12.7233 16.277 12.7887 16.4077 12.9193C16.5383 13.05 16.6036 13.2069 16.6033 13.39V16.7233C16.6033 16.9067 16.5381 17.0637 16.4077 17.1943C16.2772 17.325 16.1202 17.3902 15.9367 17.39H11.9367ZM13.9367 15.7233C14.12 15.7233 14.277 15.6581 14.4077 15.5277C14.5383 15.3972 14.6036 15.2402 14.6033 15.0567C14.6031 14.8731 14.5379 14.7162 14.4077 14.586C14.2774 14.4558 14.1204 14.3904 13.9367 14.39C13.7529 14.3896 13.596 14.4549 13.466 14.586C13.336 14.7171 13.2707 14.874 13.27 15.0567C13.2693 15.2393 13.3347 15.3963 13.466 15.5277C13.5973 15.659 13.7542 15.7242 13.9367 15.7233ZM12.9367 12.7233H14.9367V12.0567C14.9367 11.7789 14.8394 11.5428 14.645 11.3483C14.4506 11.1539 14.2144 11.0567 13.9367 11.0567C13.6589 11.0567 13.4228 11.1539 13.2283 11.3483C13.0339 11.5428 12.9367 11.7789 12.9367 12.0567V12.7233Z" fill="black"/>
</svg>
