<svg width="19" height="19" viewBox="0 0 19 19" fill="none" xmlns="http://www.w3.org/2000/svg">
<path d="M9.20377 0.928893C9.1401 0.992564 9.0734 1.09565 9.05521 1.16235C9.03398 1.23815 9.02186 1.59592 9.02186 2.09013V2.89663L8.75808 2.91786C8.06982 2.9694 7.16327 3.23621 6.45075 3.59095C5.6958 3.96388 5.10153 4.40049 4.51637 5.00385C3.44002 6.11657 2.78208 7.50824 2.61229 9.03029L2.57591 9.34864L1.70877 9.35167C0.74764 9.35471 0.744608 9.35471 0.62333 9.55482C0.486892 9.77615 0.508116 10.0157 0.680937 10.1855C0.741576 10.2461 0.844663 10.3128 0.911366 10.331C0.984133 10.3522 1.33281 10.3643 1.7967 10.3643H2.56075L2.57591 10.4614C2.58198 10.5159 2.61229 10.7342 2.63958 10.9465C2.79724 12.1532 3.31268 13.3478 4.09492 14.3211C4.53456 14.8668 5.21675 15.4671 5.85346 15.8674C6.64177 16.3646 7.80301 16.7709 8.7035 16.8679C9.05521 16.9043 9.01579 16.8012 9.02792 17.6956C9.03702 18.4445 9.04005 18.4809 9.10978 18.6204C9.20984 18.8235 9.32202 18.8902 9.54638 18.8751C9.74346 18.8629 9.85261 18.7993 9.9466 18.6386C10.0012 18.5446 10.0072 18.4718 10.0163 17.7259L10.0254 16.9194L10.2134 16.8982C10.3165 16.8891 10.5469 16.8588 10.7288 16.8315L11.0533 16.786V16.2706V15.7521L10.9562 15.7734C10.6985 15.8249 10.3256 15.8795 10.174 15.8886L10.0072 15.8977L9.99815 14.4575C9.98905 12.8718 10.0012 12.9597 9.79197 12.802C9.57974 12.6383 9.24925 12.705 9.09159 12.9415L9.02186 13.0416V14.4727V15.9037L8.73382 15.8643C6.26581 15.5217 4.3011 13.7783 3.7038 11.3982C3.6371 11.1375 3.53401 10.5372 3.53401 10.4159C3.53401 10.3704 3.67651 10.3643 4.87717 10.3583L6.22033 10.3492L6.33251 10.2734C6.62661 10.0702 6.6448 9.64881 6.36586 9.43657L6.26581 9.35774L4.89839 9.36077C3.61891 9.3638 3.53401 9.36077 3.53401 9.31226C3.53401 9.20008 3.65529 8.52092 3.71593 8.28746C4.26168 6.22573 5.91107 4.60666 8.01828 4.07303C8.31238 4.00027 8.82781 3.90628 8.95212 3.90628H9.01882L9.02792 5.29188C9.03702 6.83212 9.03398 6.79573 9.24016 6.9443C9.31899 6.99887 9.37963 7.01403 9.53729 7.01403C9.74649 7.01403 9.82836 6.97462 9.94964 6.81999C10.0042 6.74419 10.0072 6.67445 10.0163 5.3222L10.0254 3.90628H10.0921C10.2316 3.90628 10.7592 3.99724 11.0593 4.07303C12.8664 4.53389 14.4309 5.89221 15.11 7.5992C15.3253 8.13586 15.5102 8.89991 15.5102 9.24859V9.3638H14.1641C12.8209 9.3638 12.8209 9.3638 12.7208 9.43051C12.548 9.54875 12.4934 9.64881 12.4934 9.84588C12.4934 9.99142 12.5086 10.0399 12.5783 10.1339C12.7481 10.3553 12.7027 10.3492 14.1853 10.3583L15.5102 10.3674L15.5072 10.4492C15.5072 10.4947 15.4951 10.5978 15.483 10.6766L15.4587 10.8222L15.6285 10.9101C15.8377 11.0132 16.1409 11.2406 16.2682 11.3831C16.3198 11.4437 16.3683 11.4892 16.3744 11.4831C16.3925 11.4619 16.4502 10.8919 16.4562 10.6312L16.4653 10.3643H17.2536C17.7357 10.3643 18.0904 10.3522 18.1632 10.331C18.3421 10.2795 18.5028 10.1066 18.527 9.93381C18.5543 9.7428 18.5058 9.60333 18.3573 9.47295L18.239 9.3638H17.3628H16.4835L16.4653 9.18795C16.3592 8.21469 16.153 7.49005 15.7558 6.69871C15.0767 5.34949 13.9852 4.26405 12.6269 3.59095C11.8992 3.22712 10.9896 2.96637 10.2983 2.91483L10.0224 2.89663L10.0194 2.36301C10.0163 1.508 9.98602 1.13203 9.91325 1.03501C9.80107 0.883414 9.66463 0.813679 9.48271 0.813679C9.33112 0.813679 9.30686 0.822774 9.20377 0.928893Z" fill="black"/>
<path d="M9.11281 8.0783C8.79445 8.14501 8.55189 8.28448 8.27599 8.56039C7.88486 8.94544 7.7363 9.30322 7.7363 9.84897C7.73933 10.2098 7.8121 10.4736 7.99705 10.7798C8.14258 11.0193 8.4579 11.3073 8.72472 11.4377C9.46755 11.8046 10.2801 11.65 10.8441 11.0345C11.1594 10.6949 11.311 10.2886 11.3079 9.80349C11.3079 9.30322 11.12 8.88481 10.7319 8.51491C10.2892 8.0965 9.72829 7.9449 9.11281 8.0783Z" fill="black"/>
<path d="M13.9397 11.2437C13.3939 11.3892 12.93 11.7652 12.6784 12.2745C12.4813 12.6748 12.4389 12.8991 12.4358 13.5662L12.4328 14.118L12.2873 14.1331C12.0963 14.1574 11.8507 14.2938 11.7627 14.4272C11.6293 14.6334 11.6263 14.6971 11.6354 16.2616L11.6445 17.7472L11.7294 17.9201C11.8355 18.1353 12.0356 18.3172 12.26 18.3991C12.4237 18.4628 12.4965 18.4658 14.3581 18.481C16.0954 18.4961 16.3016 18.4931 16.4805 18.4476C16.7412 18.3809 16.9686 18.2263 17.1051 18.0231C17.2991 17.729 17.2991 17.726 17.2991 16.1403C17.2991 14.5576 17.2961 14.5243 17.1051 14.3242C17.002 14.212 16.7624 14.124 16.5654 14.124C16.4623 14.124 16.4502 14.1149 16.4623 14.0695C16.4744 14.0391 16.4835 13.7814 16.4835 13.4995C16.4896 13.0629 16.4805 12.9507 16.4229 12.7445C16.2561 12.1229 15.871 11.6348 15.3374 11.3771C14.9311 11.18 14.3824 11.1285 13.9397 11.2437ZM14.8159 12.2291C15.1403 12.3443 15.4405 12.6657 15.5254 12.9871C15.5375 13.0356 15.5497 13.3115 15.5527 13.5965L15.5557 14.1149L14.4642 14.1058L13.3727 14.0968L13.3636 13.8148C13.3515 13.4055 13.4061 12.9598 13.491 12.7718C13.6213 12.4898 13.9306 12.2503 14.2489 12.1836C14.3975 12.1533 14.6552 12.1745 14.8159 12.2291ZM14.8462 15.3217C15.0403 15.4581 15.1222 15.637 15.11 15.8856C15.0979 16.113 15.0251 16.2494 14.8523 16.3677L14.7523 16.4374V16.8285C14.7523 17.0438 14.7401 17.2439 14.7219 17.2742C14.6825 17.35 14.5279 17.4107 14.4339 17.3864C14.2944 17.35 14.2611 17.25 14.2399 16.8225L14.2217 16.4314L14.1155 16.3616C13.9518 16.2525 13.8578 16.0554 13.8609 15.8371C13.8639 15.637 13.9124 15.5157 14.0458 15.3914C14.1974 15.2459 14.2944 15.2125 14.5158 15.2216C14.6825 15.2307 14.7432 15.2489 14.8462 15.3217Z" fill="black"/>
</svg>
