<svg width="18" height="19" viewBox="0 0 18 19" fill="none" xmlns="http://www.w3.org/2000/svg">
<path d="M8.66949 0.115157C8.60582 0.178828 8.53912 0.281915 8.52093 0.348618C8.4997 0.424417 8.48758 0.782188 8.48758 1.2764V2.0829L8.2238 2.10412C7.53554 2.15567 6.62899 2.42248 5.91648 2.77722C5.16152 3.15015 4.56725 3.58675 3.98209 4.19011C2.90574 5.30284 2.24781 6.69451 2.07802 8.21655L2.04163 8.53491L1.17449 8.53794C0.213361 8.54097 0.210329 8.54097 0.0890511 8.74108C-0.0473871 8.96241 -0.0261634 9.20194 0.146658 9.37173C0.207297 9.43237 0.310384 9.49907 0.377087 9.51726C0.449854 9.53849 0.798529 9.55061 1.26242 9.55061H2.02647L2.04163 9.64764C2.0477 9.70221 2.07802 9.92051 2.1053 10.1327C2.26297 11.3395 2.7784 12.5341 3.56064 13.5073C4.00028 14.0531 4.68247 14.6534 5.31918 15.0536C6.10749 15.5509 7.26873 15.9571 8.16922 16.0542C8.52093 16.0905 8.48151 15.9875 8.49364 16.8819C8.50274 17.6308 8.50577 17.6672 8.5755 17.8066C8.67556 18.0098 8.78774 18.0765 9.01211 18.0613C9.20918 18.0492 9.31833 17.9855 9.41232 17.8248C9.4669 17.7308 9.47296 17.6581 9.48206 16.9122L9.49116 16.1057L9.67914 16.0845C9.78222 16.0754 10.0127 16.0451 10.1946 16.0178L10.519 15.9723V15.4569V14.9384L10.422 14.9596C10.1643 15.0112 9.79132 15.0657 9.63972 15.0748L9.47296 15.0839L9.46387 13.6438C9.45477 12.058 9.4669 12.146 9.25769 11.9883C9.04546 11.8246 8.71497 11.8913 8.55731 12.1278L8.48758 12.2278V13.6589V15.09L8.19954 15.0506C5.73153 14.708 3.76682 12.9646 3.16952 10.5845C3.10282 10.3238 2.99973 9.72343 2.99973 9.60216C2.99973 9.55668 3.14223 9.55061 4.34289 9.54455L5.68605 9.53545L5.79823 9.45965C6.09233 9.25651 6.11052 8.83507 5.83158 8.62283L5.73153 8.544L4.36411 8.54703C3.08463 8.55007 2.99973 8.54703 2.99973 8.49852C2.99973 8.38634 3.12101 7.70718 3.18165 7.47372C3.7274 5.41199 5.37679 3.79292 7.484 3.2593C7.7781 3.18653 8.29353 3.09254 8.41784 3.09254H8.48455L8.49364 4.47815C8.50274 6.01838 8.4997 5.982 8.70588 6.13056C8.78471 6.18514 8.84535 6.2003 9.00301 6.2003C9.21222 6.2003 9.29408 6.16088 9.41536 6.00625C9.46993 5.93045 9.47296 5.86072 9.48206 4.50847L9.49116 3.09254H9.55786C9.69733 3.09254 10.2249 3.1835 10.5251 3.2593C12.3321 3.72016 13.8966 5.07847 14.5757 6.78547C14.791 7.32212 14.976 8.08618 14.976 8.43485V8.55007H13.6298C12.2866 8.55007 12.2866 8.55007 12.1866 8.61677C12.0137 8.73502 11.9592 8.83507 11.9592 9.03215C11.9592 9.17768 11.9743 9.22619 12.0441 9.32018C12.2139 9.54152 12.1684 9.53545 13.651 9.54455L14.976 9.55364L14.9729 9.63551C14.9729 9.68099 14.9608 9.78407 14.9487 9.8629L14.9244 10.0084L15.0942 10.0964C15.3034 10.1995 15.6066 10.4268 15.734 10.5694C15.7855 10.63 15.834 10.6755 15.8401 10.6694C15.8583 10.6482 15.9159 10.0782 15.9219 9.81743L15.931 9.55061H16.7193C17.2014 9.55061 17.5562 9.53849 17.6289 9.51726C17.8078 9.46572 17.9685 9.2929 17.9928 9.12007C18.0201 8.92906 17.9715 8.78959 17.823 8.65922L17.7047 8.55007H16.8285H15.9492L15.931 8.37421C15.8249 7.40095 15.6187 6.67632 15.2216 5.88497C14.5424 4.53575 13.4509 3.45031 12.0926 2.77722C11.3649 2.41338 10.4553 2.15263 9.76403 2.10109L9.48812 2.0829L9.48509 1.54927C9.48206 0.694261 9.45174 0.318298 9.37897 0.221276C9.26679 0.0696776 9.13035 -5.74615e-05 8.94843 -5.74615e-05C8.79684 -5.74615e-05 8.77258 0.00903842 8.66949 0.115157Z" fill="black"/>
<path d="M8.57854 7.26457C8.26018 7.33127 8.01762 7.47074 7.74172 7.74665C7.35059 8.13171 7.20203 8.48948 7.20203 9.03523C7.20506 9.39603 7.27783 9.65982 7.46277 9.96604C7.60831 10.2056 7.92363 10.4936 8.19045 10.624C8.93327 10.9908 9.74584 10.8362 10.3098 10.2207C10.6251 9.88115 10.7767 9.47487 10.7737 8.98975C10.7737 8.48948 10.5857 8.07107 10.1976 7.70117C9.75494 7.28276 9.19402 7.13116 8.57854 7.26457Z" fill="black"/>
</svg>
